<svg xmlns="http://www.w3.org/2000/svg" viewBox="0 0 512 512" role="img" aria-labelledby="title">
  <title>Iglesias</title>
  <rect width="512" height="512" rx="112" fill="#0f172a" />
  <path d="M152 118h208c26.5 0 48 21.5 48 48v208c0 26.5-21.5 48-48 48H152c-26.5 0-48-21.5-48-48V166c0-26.5 21.5-48 48-48z" fill="#f8fafc"/>
  <path d="M196 168h102v176H196z" fill="#0f172a"/>
  <path d="M286 168h38v176h-38z" fill="#1e293b"/>
  <path d="M256 216l20 36h41l-31 22 12 40-42-26-42 26 12-40-31-22h41z" fill="#f59e0b"/>
</svg>
