<svg xmlns="http://www.w3.org/2000/svg" viewBox="0 0 192 192" role="img" aria-labelledby="title">
  <title>Biblia Comunidad 192</title>
  <rect width="192" height="192" rx="40" fill="#0f172a" />
  <path d="M60 44h72c8.8 0 16 7.2 16 16v72c0 8.8-7.2 16-16 16H60c-8.8 0-16-7.2-16-16V60c0-8.8 7.2-16 16-16z" fill="#f8fafc"/>
  <path d="M76 62h36v68H76z" fill="#0f172a"/>
  <path d="M102 62h14v68h-14z" fill="#1e293b"/>
  <path d="M96 82l7 12h14l-11 8 4 14-14-9-14 9 4-14-11-8h14z" fill="#f59e0b"/>
</svg>
